<svg width="982" height="181" viewBox="0 0 982 181" fill="none" xmlns="http://www.w3.org/2000/svg">
<path fill-rule="evenodd" clip-rule="evenodd" d="M482.769 175.609L931.459 38.4389C930.775 32.1974 934.594 26.1522 940.819 24.2492C947.861 22.0963 955.315 26.0598 957.468 33.1019C959.621 40.1439 955.657 47.5979 948.615 49.7507C942.39 51.6538 935.844 48.7776 932.921 43.2204L484.231 180.391C483.952 180.476 483.669 180.51 483.393 180.498C483.116 180.605 482.815 180.663 482.5 180.663H2.5C1.11929 180.663 0 179.543 0 178.163C0 176.782 1.11929 175.663 2.5 175.663H482.5C482.536 175.663 482.571 175.663 482.607 175.665C482.66 175.645 482.714 175.626 482.769 175.609Z" fill="#1E7DED"/>
<circle cx="944.5" cy="37" r="37" fill="white" fill-opacity="0.07"/>
<circle cx="944" cy="36.5" r="23.5" fill="#105DB7" fill-opacity="0.58"/>
</svg>
