<svg width="54" height="55" viewBox="0 0 54 55" fill="none" xmlns="http://www.w3.org/2000/svg">
<path fill-rule="evenodd" clip-rule="evenodd" d="M28.8431 54.0908H2.98038C1.33388 54.0908 0 52.7561 0 51.1102V3.07119C0 1.42491 1.33409 0.0908203 2.98038 0.0908203H51.0198C52.6657 0.0908203 54 1.42491 54 3.07119V51.1102C54 52.7563 52.6655 54.0908 51.0198 54.0908H37.2592V33.179H44.2783L45.3293 25.0294H37.2592V19.8263C37.2592 17.4668 37.9144 15.8588 41.298 15.8588L45.6135 15.8569V8.5678C44.8671 8.46848 42.3054 8.24659 39.325 8.24659C33.1029 8.24659 28.8431 12.0445 28.8431 19.0192V25.0294H21.806V33.179H28.8431V54.0908Z" fill="white"/>
</svg>
