<svg width="54" height="55" viewBox="0 0 54 55" fill="none" xmlns="http://www.w3.org/2000/svg">
<path fill-rule="evenodd" clip-rule="evenodd" d="M11.5714 0.0908203H42.4286C48.8193 0.0908203 54 5.27153 54 11.6622V42.5194C54 48.9101 48.8193 54.0908 42.4286 54.0908H11.5714C5.18071 54.0908 0 48.9101 0 42.5194V11.6622C0 5.27153 5.18071 0.0908203 11.5714 0.0908203ZM37.6072 19.3765C39.2048 19.3765 40.5001 18.0813 40.5001 16.4837C40.5001 14.886 39.2048 13.5908 37.6072 13.5908C36.0096 13.5908 34.7144 14.886 34.7144 16.4837C34.7144 18.0813 36.0096 19.3765 37.6072 19.3765ZM27.0003 36.7335C32.3258 36.7335 36.6431 32.4162 36.6431 27.0907C36.6431 21.7651 32.3258 17.4478 27.0003 17.4478C21.6747 17.4478 17.3574 21.7651 17.3574 27.0907C17.3574 32.4162 21.6747 36.7335 27.0003 36.7335ZM27.0003 32.8764C30.1957 32.8764 32.786 30.2861 32.786 27.0907C32.786 23.8952 30.1957 21.3049 27.0003 21.3049C23.8048 21.3049 21.2146 23.8952 21.2146 27.0907C21.2146 30.2861 23.8048 32.8764 27.0003 32.8764ZM8.97556 14.1229C7.71436 16.5981 7.71436 19.8385 7.71436 26.3191V27.8619C7.71436 34.3425 7.71436 37.5829 8.97556 40.058C10.085 42.2354 11.8552 44.0056 14.0325 45.1149C16.5077 46.3762 19.7481 46.3762 26.2286 46.3762H27.7715C34.2521 46.3762 37.4925 46.3762 39.9676 45.1149C42.1449 44.0056 43.9152 42.2354 45.0245 40.058C46.2858 37.5829 46.2858 34.3425 46.2858 27.8619V26.3191C46.2858 19.8385 46.2858 16.5981 45.0245 14.1229C43.9152 11.9456 42.1449 10.1754 39.9676 9.066C37.4925 7.80479 34.2521 7.80479 27.7715 7.80479H26.2286C19.7481 7.80479 16.5077 7.80479 14.0325 9.066C11.8552 10.1754 10.085 11.9456 8.97556 14.1229ZM27.7715 11.6619H26.2286C22.9246 11.6619 20.6788 11.6649 18.9427 11.8068C17.2515 11.9449 16.3868 12.1954 15.7835 12.5027C14.332 13.2423 13.1519 14.4225 12.4123 15.8739C12.1049 16.4772 11.8545 17.342 11.7163 19.0331C11.5745 20.7692 11.5715 23.015 11.5715 26.3191V27.8619C11.5715 31.166 11.5745 33.4118 11.7163 35.1479C11.8545 36.839 12.1049 37.7038 12.4123 38.3071C13.1519 39.7585 14.332 40.9386 15.7835 41.6782C16.3868 41.9856 17.2515 42.2362 18.9427 42.3742C20.6788 42.516 22.9246 42.5191 26.2286 42.5191H27.7715C31.0755 42.5191 33.3214 42.516 35.0574 42.3742C36.7486 42.2362 37.6134 41.9856 38.2166 41.6782C39.6681 40.9386 40.8482 39.7585 41.5878 38.3071C41.8952 37.7038 42.1457 36.839 42.2838 35.1479C42.4256 33.4118 42.4286 31.166 42.4286 27.8619V26.3191C42.4286 23.015 42.4256 20.7692 42.2838 19.0331C42.1457 17.342 41.8952 16.4772 41.5878 15.8739C40.8482 14.4225 39.6681 13.2423 38.2166 12.5027C37.6134 12.1954 36.7486 11.9449 35.0574 11.8068C33.3214 11.6649 31.0755 11.6619 27.7715 11.6619Z" fill="white"/>
</svg>
