<svg width="60" height="55" viewBox="0 0 60 55" fill="none" xmlns="http://www.w3.org/2000/svg">
<path fill-rule="evenodd" clip-rule="evenodd" d="M59.6 54.1818H46.4276V35.1347C46.4276 30.1492 44.3671 26.7457 39.8362 26.7457C36.3705 26.7457 34.4431 29.0425 33.546 31.2559C33.2096 32.0504 33.2622 33.1572 33.2622 34.2639V54.1818H20.2124C20.2124 54.1818 20.3806 20.4418 20.2124 17.3748H33.2622V23.1514C34.0331 20.6257 38.2031 17.0209 44.8577 17.0209C53.1136 17.0209 59.6 22.3153 59.6 33.7158V54.1818ZM7.01546 12.7709H6.93138C2.7263 12.7709 0 9.9572 0 6.39065C0 2.7547 2.80689 0 7.09607 0C11.3817 0 14.0169 2.74779 14.101 6.38027C14.101 9.94683 11.3817 12.7709 7.01546 12.7709ZM1.50328 17.3748H13.1198V54.1818H1.50328V17.3748Z" fill="white"/>
</svg>
