<svg width="54" height="55" viewBox="0 0 54 55" fill="none" xmlns="http://www.w3.org/2000/svg">
<path fill-rule="evenodd" clip-rule="evenodd" d="M54 27.0908C54 42.0025 41.9117 54.0908 27 54.0908C12.0883 54.0908 0 42.0025 0 27.0908C0 12.1791 12.0883 0.0908203 27 0.0908203C41.9117 0.0908203 54 12.1791 54 27.0908ZM37.0335 17.7822C39.2956 17.7822 41.1293 19.6168 41.1293 21.8802H41.1289V32.8691C41.1289 35.132 39.2957 36.9671 37.0331 36.9671H17.8172C15.5558 36.9671 13.7222 35.1325 13.7222 32.8691V21.8802C13.7222 19.6172 15.5555 17.7822 17.8172 17.7822H37.0335ZM24.6841 21.6892V32.0104L32.5113 26.8501L24.6841 21.6892Z" fill="white"/>
</svg>
